:FULLY-SPECIFIED
:FORCE-ALL-JOINTS-BE-3DOF
:DEGREES
1019
root 1.14703 15.1607 32.4377 4.84645 -3.3815 363.571
lfemur 8.39534 0.419387 5.73308
ltibia -2.43843e-14 0 0
lfoot -30.1365 -10.9807 0
ltoes -34.4285 0 0
rfemur -31.5362 -15.955 -6.02789
rtibia 50.1747 0 0
rfoot -22.4262 4.59449 0
rtoes -42.7287 0 0
lowerback -1.42841 -0.167695 0.308561
upperback -0.512015 -0.211225 -5.91473
thorax 0.251209 -0.112227 -6.31009
lowerneck -7.21875 0.913213 6.21182
upperneck 1.60998 0.535065 3.43885
head 1.7404 0.399702 0.0488345
lclavicle -3.21369e-15 -2.6505e-15 0
lhumerus -58.5907 -46.3773 115.212
lradius 55.7429 0 0
lwrist 25.301 0 0
lhand 37.2225 24.8932 0
lfingers 7.12502 0 0
lthumb 60.0556 38.615 0
rclavicle -3.21369e-15 -2.6505e-15 0
rhumerus 2.77603 -23.8341 0.277343
rradius 27.6889 0 0
rwrist -10.2926 0 0
rhand -30.7308 -42.9237 0
rfingers 7.12502 0 0
rthumb -4.02314 -792.865 0
1020
root 1.14725 15.1605 32.4399 4.8486 -3.37226 363.557
lfemur 8.39983 0.412498 5.74679
ltibia -2.33241e-14 0 0
lfoot -30.1413 -10.9701 0
ltoes -34.4447 0 0
rfemur -31.5306 -15.9528 -6.01989
rtibia 50.184 0 0
rfoot -22.4004 4.63028 0
rtoes -42.6673 0 0
lowerback -1.44118 -0.160392 0.290243
upperback -0.514754 -0.200904 -5.92006
thorax 0.25677 -0.106968 -6.3051
lowerneck -7.21923 0.906954 6.23757
upperneck 1.62606 0.523732 3.43555
head 1.74577 0.394732 0.0430723
lclavicle -3.94256e-15 -1.00718e-14 0
lhumerus -58.6019 -46.387 115.215
lradius 55.7597 0 0
lwrist 25.3106 0 0
lhand 37.2227 24.9263 0
lfingers 7.12502 0 0
lthumb 60.0558 38.6479 0
rclavicle -3.94256e-15 -1.00718e-14 0
rhumerus 2.76323 -23.8205 0.286847
rradius 27.6862 0 0
rwrist -10.2566 0 0
rhand -30.7214 -42.8674 0
rfingers 7.12502 0 0
rthumb -4.01406 -792.809 0
1021
root 1.14747 15.1604 32.4422 4.85074 -3.36302 363.544
lfemur 8.40432 0.40561 5.7605
ltibia -2.22639e-14 0 0
lfoot -30.146 -10.9595 0
ltoes -34.4609 0 0
rfemur -31.5251 -15.9507 -6.01189
rtibia 50.1932 0 0
rfoot -22.3746 4.66606 0
rtoes -42.6059 0 0
lowerback -1.45395 -0.153088 0.271925
upperback -0.517494 -0.190583 -5.92539
thorax 0.262331 -0.101709 -6.30012
lowerneck -7.21972 0.900696 6.26333
upperneck 1.64214 0.512399 3.43225
head 1.75113 0.389762 0.0373101
lclavicle -4.67144e-15 -1.74931e-14 0
lhumerus -58.6132 -46.3967 115.218
lradius 55.7764 0 0
lwrist 25.3203 0 0
lhand 37.2229 24.9594 0
lfingers 7.12502 0 0
lthumb 60.056 38.6808 0
rclavicle -4.67144e-15 -1.74931e-14 0
rhumerus 2.75044 -23.8069 0.29635
rradius 27.6834 0 0
rwrist -10.2205 0 0
rhand -30.712 -42.8112 0
rfingers 7.12502 0 0
rthumb -4.00498 -792.753 0
1022
root 1.14831 15.1602 32.4451 4.8461 -3.37067 363.536
lfemur 8.42502 0.41068 5.76654
ltibia -2.01435e-14 0 0
lfoot -30.1482 -10.9702 0
ltoes -34.4524 0 0
rfemur -31.5177 -15.9523 -6.0118
rtibia 50.1963 0 0
rfoot -22.3462 4.73955 0
rtoes -42.5086 0 0
lowerback -1.46158 -0.144607 0.253959
upperback -0.518155 -0.178722 -5.93695
thorax 0.267273 -0.0956718 -6.30191
lowerneck -7.21308 0.897978 6.28292
upperneck 1.65121 0.506151 3.45902
head 1.75282 0.387721 0.0422499
lclavicle -4.91992e-15 -1.00718e-14 0
lhumerus -58.6264 -46.4353 115.24
lradius 55.7693 0 0
lwrist 25.3079 0 0
lhand 37.2375 24.9739 0
lfingers 7.12502 0 0
lthumb 60.0685 38.6821 0
rclavicle -4.91992e-15 -1.00718e-14 0
rhumerus 2.74096 -23.812 0.285367
rradius 27.6611 0 0
rwrist -10.1915 0 0
rhand -30.7019 -42.7891 0
rfingers 7.12502 0 0
rthumb -3.99526 -792.731 0
1023
root 1.14916 15.16 32.4479 4.84146 -3.37832 363.528
lfemur 8.44572 0.41575 5.77258
ltibia -1.80232e-14 0 0
lfoot -30.1504 -10.9808 0
ltoes -34.4439 0 0
rfemur -31.5104 -15.9539 -6.01171
rtibia 50.1995 0 0
rfoot -22.3177 4.81303 0
rtoes -42.4113 0 0
lowerback -1.46921 -0.136126 0.235993
upperback -0.518816 -0.166861 -5.94851
thorax 0.272214 -0.0896347 -6.3037
lowerneck -7.20645 0.89526 6.30252
upperneck 1.66027 0.499903 3.48579
head 1.75452 0.385679 0.0471898
lclavicle -5.1684e-15 -2.6505e-15 0
lhumerus -58.6395 -46.4738 115.262
lradius 55.7622 0 0
lwrist 25.2955 0 0
lhand 37.2521 24.9884 0
lfingers 7.12502 0 0
lthumb 60.0809 38.6834 0
rclavicle -5.1684e-15 -2.6505e-15 0
rhumerus 2.73149 -23.8171 0.274384
rradius 27.6387 0 0
rwrist -10.1626 0 0
rhand -30.6919 -42.767 0
rfingers 7.12502 0 0
rthumb -3.98555 -792.709 0
